<svg xmlns="http://www.w3.org/2000/svg" xmlns:xlink="http://www.w3.org/1999/xlink" width="18" height="18" viewBox="0 0 18 18"><defs><path id="6dm9a" d="M983.78 162.05l-1.13 1.04c-.2.18-.66.1-.8-.04l-4.22-4.19c-.85.58-1.4.52-2.45.52a5.16 5.16 0 0 1-3.66-8.86 5.14 5.14 0 0 1 7.32 0 5.16 5.16 0 0 1 1.52 3.67c0 1.04.27 1.73-.3 2.58l4.37 4.37c.14.15-.46.72-.65.9zm-4.82-7.86a3.78 3.78 0 1 0-7.57 0 3.78 3.78 0 0 0 7.57 0z"/></defs><g><g transform="translate(-968 -147)"><use fill="#888" xlink:href="#6dm9a"/></g></g></svg>